<svg xmlns="http://www.w3.org/2000/svg" width="199.127" height="47.217"><g transform="translate(-11 -7.717)"><path fill="none" stroke="#000" stroke-linecap="round" stroke-width="3.776" d="M170.749 29.784a20.119 20.119 0 0 1 13.808-19.522M207.651 19.9a17.111 17.111 0 0 0-11.666-9.88M172.3 40.5a18.334 18.334 0 0 0 12.261 11.666M207.413 43.83a17.971 17.971 0 0 1-11.428 8.57M138.013 40.5l2.156 4.062 3.915 7.842M75.757 15.619l-5.7 13.952M117.182 52.4V40.5M117.182 29.785V15.619M97.9 52.4l-5.487-12.048M73.258 34.9h11.19M13.025 52.4V40.5M13.025 30.023v-14.4M18.024 35.141H28.7c8.308 0 13.728-4.816 13.728-12.468 0-7.879-5.362-12.411-13.728-12.411H18.024M122.777 10.262h12.579c7.641 0 12.538 4.976 12.538 12.413 0 5.165-2.531 9.317-6.748 11.264M60.007 52.386l5.468-11.978M81.827 15.619l6.38 14.256M122.777 35.141h7.865" class="line1"/><path fill="none" stroke="#000" stroke-linecap="round" stroke-width="3.776" d="M46 35.141h16.07M95.638 34.9h15.951M149.442 35.141h16.07" class="line1 line2"/><circle cx="2.024" cy="2.024" r="2.024" fill="var(--c-logo-circle, #1C85FF)" transform="translate(11 33.117)"/><circle cx="2.024" cy="2.024" r="2.024" fill="var(--c-logo-circle, #1C85FF)" transform="translate(11 8)"/><circle cx="2.024" cy="2.024" r="2.024" fill="var(--c-logo-circle, #1C85FF)" transform="translate(65.636 32.879)"/><circle cx="2.024" cy="2.024" r="2.024" fill="var(--c-logo-circle, #1C85FF)" transform="translate(76.828 8.238)"/><circle cx="2.024" cy="2.024" r="2.024" fill="var(--c-logo-circle, #1C85FF)" transform="translate(115.156 8.238)"/><circle cx="2.024" cy="2.024" r="2.024" fill="var(--c-logo-circle, #1C85FF)" transform="translate(115.156 32.879)"/><circle cx="2.024" cy="2.024" r="2.024" fill="var(--c-logo-circle, #1C85FF)" transform="translate(133.965 33.117)"/><circle cx="2.024" cy="2.024" r="2.024" fill="var(--c-logo-circle, #1C85FF)" transform="translate(168.783 33.117)"/><circle cx="2.024" cy="2.024" r="2.024" fill="var(--c-logo-circle, #1C85FF)" transform="translate(188.368 50.377)"/><circle cx="2.024" cy="2.024" r="2.024" fill="var(--c-logo-circle, #1C85FF)" transform="translate(188.368 8.238)"/><circle cx="2.024" cy="2.024" r="2.024" fill="var(--c-logo-circle, #1C85FF)" transform="translate(88.016 32.879)"/></g></svg>